<?xml version="1.0" standalone="no"?>
<!DOCTYPE svg PUBLIC "-//W3C//DTD SVG 20010904//EN"
 "http://www.w3.org/TR/2001/REC-SVG-20010904/DTD/svg10.dtd">
<svg version="1.0" xmlns="http://www.w3.org/2000/svg"
 width="754.000000pt" height="334.000000pt" viewBox="0 0 754.000000 334.000000"
 preserveAspectRatio="xMidYMid meet">

<g transform="translate(0.000000,334.000000) scale(0.100000,-0.100000)"
fill="#000000" stroke="none">
<path d="M1463 3130 c-20 -8 -393 -221 -533 -304 -30 -18 -176 -102 -323 -187
-147 -85 -281 -166 -296 -182 -16 -15 -34 -47 -40 -71 -16 -63 -15 -1290 0
-1352 7 -25 24 -56 39 -71 16 -15 172 -109 347 -211 175 -101 374 -217 443
-257 69 -40 143 -83 165 -95 22 -12 75 -43 118 -67 138 -80 164 -77 353 34 65
39 308 180 539 313 231 133 435 253 453 267 64 48 62 27 62 765 0 647 -1 670
-20 708 -11 21 -32 47 -47 58 -16 10 -217 128 -448 261 -231 134 -478 277
-550 319 -113 66 -137 76 -185 79 -30 2 -65 -1 -77 -7z m-143 -520 c26 -26 25
-66 -3 -93 -12 -12 -66 -47 -119 -77 l-97 -55 -1 -632 c0 -348 3 -633 8 -633
4 0 25 11 47 23 l40 23 5 281 c5 258 7 283 24 302 26 29 80 28 100 -1 23 -33
24 -622 1 -655 -8 -11 -52 -42 -97 -68 -46 -26 -105 -60 -131 -76 -55 -33 -92
-37 -119 -12 -17 15 -18 52 -18 763 l0 747 23 20 c41 39 262 162 290 163 15 0
36 -9 47 -20z m588 -47 c64 -36 129 -78 145 -91 l27 -26 0 -311 c0 -234 -3
-315 -12 -327 -7 -9 -44 -35 -83 -58 -38 -23 -71 -43 -73 -45 -1 -1 26 -19 60
-40 119 -72 108 -32 108 -393 0 -280 -2 -318 -17 -334 -21 -23 -65 -23 -94 1
l-24 19 -3 284 -3 283 -96 55 c-125 72 -143 86 -143 116 0 44 17 61 130 124
l110 63 0 251 0 252 -85 47 c-47 26 -87 47 -89 47 -3 0 -362 -205 -414 -237
-9 -6 -12 -27 -10 -69 l3 -62 95 55 c250 146 284 165 304 172 30 12 71 -6 85
-35 16 -37 15 -296 -3 -337 -11 -26 -39 -47 -148 -109 -74 -43 -145 -78 -158
-78 -29 0 -70 37 -70 62 0 38 21 57 135 123 l115 67 0 53 c0 30 -4 56 -8 59
-4 2 -73 -34 -152 -80 -230 -134 -264 -150 -295 -136 -38 18 -45 49 -45 212 0
149 0 150 28 179 15 16 72 55 127 87 55 31 165 95 245 140 80 46 155 84 168
84 12 0 75 -30 140 -67z m-248 -1004 c69 -38 136 -81 150 -95 l25 -24 3 -306
3 -305 -30 -29 c-35 -35 -49 -37 -85 -9 l-26 20 0 282 0 282 -52 32 -53 31 -5
-239 c-5 -222 -6 -240 -25 -258 -11 -10 -80 -54 -152 -96 -125 -73 -135 -77
-162 -65 -40 16 -59 62 -38 94 14 20 174 124 220 142 15 6 17 33 17 289 l0
284 26 20 c15 12 34 21 43 21 9 0 72 -32 141 -71z"/>
<path d="M4217 2500 c-41 -13 -58 -29 -81 -80 -19 -41 -21 -67 -24 -327 -6
-460 15 -523 173 -523 l67 0 -4 -65 -3 -65 53 0 53 0 -3 468 c-3 454 -4 468
-25 514 -11 25 -32 54 -46 63 -30 19 -120 28 -160 15z m97 -95 c26 -27 31 -82
31 -375 -1 -320 -4 -342 -61 -348 -51 -5 -57 11 -67 207 -12 236 1 481 28 510
22 25 48 27 69 6z"/>
<path d="M5613 2500 c-73 -23 -109 -117 -101 -265 6 -107 28 -147 120 -222 97
-78 110 -104 106 -215 -4 -96 -17 -121 -57 -116 -35 4 -51 40 -51 116 l0 62
-61 0 -61 0 7 -72 c10 -108 23 -148 61 -186 34 -34 35 -34 113 -31 72 4 83 7
110 33 42 40 51 80 51 217 0 149 -14 180 -122 261 -44 33 -80 69 -87 87 -9 19
-12 64 -9 126 2 82 6 99 22 111 26 18 32 18 55 -5 12 -12 21 -41 26 -80 l7
-61 55 0 56 0 -7 68 c-8 77 -30 127 -67 154 -30 22 -120 32 -166 18z"/>
<path d="M3200 2041 l0 -461 55 0 55 0 0 216 0 215 47 -3 c67 -4 72 -20 86
-243 l11 -185 57 0 57 0 -4 38 c-2 20 -11 113 -19 207 -9 100 -22 181 -31 199
-13 27 -13 33 3 65 26 53 31 257 8 317 -28 73 -57 86 -201 92 l-124 5 0 -462z
m210 351 c26 -21 37 -106 25 -197 -9 -72 -32 -97 -83 -93 l-37 3 -3 140 c-1
76 0 145 2 152 8 19 70 16 96 -5z"/>
<path d="M3720 2040 l0 -460 130 0 130 0 0 55 0 55 -75 0 -75 0 0 160 0 160
65 0 65 0 0 45 0 44 -62 3 -63 3 0 150 0 150 73 3 72 3 0 44 0 45 -130 0 -130
0 0 -460z"/>
<path d="M4623 2108 c5 -430 7 -450 62 -505 31 -31 38 -33 99 -33 78 0 110 13
135 54 35 56 41 137 41 513 l0 363 -54 0 -55 0 -3 -387 c-2 -293 -6 -394 -16
-410 -18 -32 -57 -30 -79 4 -16 25 -18 64 -22 410 l-3 383 -55 0 -55 0 5 -392z"/>
<path d="M5130 2040 l0 -460 130 0 130 0 0 55 0 55 -75 0 -75 0 0 160 0 160
65 0 65 0 0 45 0 44 -62 3 -63 3 0 150 0 150 73 3 72 3 0 44 0 45 -130 0 -130
0 0 -460z"/>
<path d="M5960 2445 l0 -55 55 0 55 0 0 -405 0 -405 60 0 60 0 0 405 0 405 55
0 55 0 0 55 0 55 -170 0 -170 0 0 -55z"/>
<path d="M6430 2040 l0 -460 130 0 130 0 0 55 0 55 -75 0 -75 0 0 160 0 160
65 0 65 0 0 45 0 44 -62 3 -63 3 0 150 0 150 73 3 72 3 0 44 0 45 -130 0 -130
0 0 -460z"/>
<path d="M6830 2041 l0 -461 60 0 60 0 0 215 0 215 39 0 c21 0 44 -6 50 -14
18 -22 31 -111 39 -266 l7 -145 58 -3 59 -3 -6 38 c-3 21 -8 74 -11 118 -12
163 -27 271 -41 293 -13 19 -13 26 1 52 38 74 38 298 1 356 -32 48 -59 57
-192 62 l-124 5 0 -462z m197 363 c33 -9 46 -62 41 -171 -4 -85 -7 -98 -27
-114 -13 -11 -38 -19 -57 -19 l-34 0 0 155 0 155 28 0 c15 0 37 -3 49 -6z"/>
<path d="M4062 1239 c-44 -13 -52 -38 -52 -164 0 -122 8 -149 49 -163 61 -21
111 10 111 70 0 48 -16 50 -24 3 -10 -51 -58 -72 -90 -39 -13 12 -16 39 -16
129 0 123 8 145 54 145 29 0 44 -17 52 -58 9 -42 24 -41 24 2 0 61 -46 92
-108 75z"/>
<path d="M4765 1239 c-39 -11 -55 -34 -55 -79 0 -45 20 -74 62 -90 74 -29 100
-87 58 -125 -32 -29 -72 -10 -84 38 -11 41 -36 51 -36 12 0 -66 57 -106 121
-83 35 12 49 35 49 78 0 45 -15 67 -63 91 -60 30 -77 48 -77 80 0 28 30 59 57
59 22 0 53 -39 53 -65 0 -16 6 -25 15 -25 9 0 15 9 15 25 0 40 -21 73 -53 85
-16 5 -30 10 -31 9 -1 0 -14 -5 -31 -10z"/>
<path d="M5265 1239 c-49 -14 -55 -31 -55 -166 0 -110 2 -125 20 -143 31 -31
105 -30 133 2 14 17 17 41 17 143 0 103 -3 126 -17 143 -22 25 -59 33 -98 21z
m63 -35 c21 -14 22 -23 22 -129 0 -106 -1 -115 -22 -129 -30 -21 -44 -20 -68
4 -17 17 -20 33 -20 125 0 92 3 108 20 125 24 24 38 25 68 4z"/>
<path d="M5554 1243 c-12 -2 -30 -13 -40 -25 -16 -17 -19 -37 -19 -143 0 -105
3 -126 18 -143 23 -25 60 -32 102 -21 39 11 55 46 55 120 l0 49 -50 0 c-38 0
-50 -4 -50 -15 0 -10 11 -15 35 -15 34 0 35 -1 35 -40 0 -65 -50 -99 -96 -66
-17 13 -19 27 -19 131 0 104 2 118 19 131 43 31 96 2 96 -53 0 -15 6 -23 16
-23 14 0 15 7 11 37 -10 57 -54 87 -113 76z"/>
<path d="M3200 1075 c0 -138 2 -165 15 -165 11 0 15 17 17 73 l3 72 63 3 c46
2 62 7 62 17 0 12 -15 15 -65 15 l-65 0 0 60 0 60 65 0 c51 0 65 3 65 15 0 12
-16 15 -80 15 l-80 0 0 -165z"/>
<path d="M3501 1208 c-5 -18 -24 -86 -41 -152 -17 -65 -34 -125 -37 -132 -3
-8 1 -14 10 -14 10 0 21 17 29 48 13 47 14 47 60 50 46 3 47 3 57 -35 6 -21
11 -44 11 -50 0 -7 7 -13 15 -13 21 0 20 2 -27 176 -43 158 -58 182 -77 122z
m59 -165 c0 -8 -13 -13 -33 -13 -51 0 -50 -7 -16 120 l12 45 18 -70 c10 -38
19 -76 19 -82z"/>
<path d="M3730 1076 c0 -139 2 -166 15 -166 12 0 15 23 17 126 l3 125 54 -125
c41 -96 58 -126 73 -126 17 0 18 11 18 165 0 140 -2 165 -15 165 -13 0 -15
-20 -15 -122 0 -73 -4 -118 -9 -113 -5 6 -32 60 -59 120 -73 161 -82 156 -82
-49z"/>
<path d="M4270 1237 c0 -3 16 -42 35 -87 30 -70 35 -93 35 -161 0 -64 3 -79
15 -79 12 0 15 14 15 69 0 60 6 84 40 162 22 51 38 94 35 97 -13 13 -35 -13
-56 -67 -13 -34 -27 -61 -30 -61 -3 0 -17 28 -31 63 -14 35 -33 63 -42 65 -9
2 -16 1 -16 -1z"/>
<path d="M4990 1075 l0 -165 65 0 c51 0 65 3 65 15 0 12 -13 15 -55 15 l-55 0
0 150 c0 93 -4 150 -10 150 -6 0 -10 -62 -10 -165z"/>
<path d="M5839 1198 c-68 -251 -77 -288 -64 -288 8 0 20 21 27 48 13 47 14 47
60 50 46 3 47 3 57 -35 6 -21 11 -44 11 -50 0 -7 7 -13 15 -13 21 0 20 5 -26
177 -45 164 -60 184 -80 111z m56 -126 l7 -42 -34 0 c-19 0 -37 2 -40 5 -3 3
4 40 16 82 l20 77 12 -40 c6 -22 15 -59 19 -82z"/>
<path d="M6070 1076 c0 -139 2 -166 15 -166 12 0 15 23 17 126 l3 125 55 -125
c40 -94 59 -126 72 -126 17 0 18 14 18 165 0 140 -2 165 -15 165 -13 0 -15
-20 -15 -122 0 -67 -3 -118 -6 -115 -4 3 -30 57 -59 119 -76 166 -85 161 -85
-46z"/>
<path d="M6370 1110 c0 -109 2 -130 15 -130 13 0 15 21 15 130 0 109 -2 130
-15 130 -13 0 -15 -21 -15 -130z"/>
<path d="M6370 925 c0 -8 7 -15 15 -15 8 0 15 7 15 15 0 8 -7 15 -15 15 -8 0
-15 -7 -15 -15z"/>
</g>
</svg>
